<svg width="70" height="21" viewBox="0 0 70 21" fill="none" xmlns="http://www.w3.org/2000/svg">
<path d="M7.91428 20.6571H10.8286L18.6571 0H15.6857L10.7143 13.1714C10.2571 14.3714 9.8 15.5429 9.37143 17.0857C8.94286 15.5429 8.48571 14.3714 8.02857 13.2L3.02857 0H0L7.91428 20.6571Z" fill="#343434"/>
<path d="M18.2658 13.6857C18.2658 18.1143 20.8944 21 24.8944 21C28.123 21 30.723 19.1429 31.3516 16.2857H28.8373C28.4373 17.7143 26.8658 18.7143 24.923 18.7143C22.6087 18.7143 21.0373 17.3143 20.8658 14.6H31.323V13.6286C31.323 9.17143 28.8373 6.28571 24.8658 6.28571C20.9516 6.28571 18.2658 9.17143 18.2658 13.6857ZM20.8944 12.8C20.9801 10.0286 22.5801 8.54286 24.8087 8.54286C26.9801 8.54286 28.6087 9.91429 28.6658 12.8H20.8944Z" fill="#343434"/>
<path d="M42.5016 6.57143C40.2158 6.08571 37.9587 6.71429 37.1301 8.48571L36.9873 6.71429H34.5016V20.6571H37.1873V13.2571C37.1873 10.5714 38.6158 8.91429 41.1587 8.91429H42.5016V6.57143Z" fill="#343434"/>
<path d="M44.0152 16.6571C44.1009 19.3714 46.1866 21 49.358 21C52.558 21 54.7009 19.3143 54.7009 16.7429C54.7009 14.7714 53.4437 13.4571 51.1295 12.8857L48.7295 12.2857C47.5295 11.9714 46.6723 11.4857 46.6723 10.3714C46.6723 9.22857 47.6152 8.34286 49.2152 8.34286C50.758 8.34286 51.8152 9.2 51.8437 10.6571H54.3295C54.2152 8 52.2723 6.28571 49.2437 6.28571C46.358 6.28571 44.1866 7.97143 44.1866 10.4857C44.1866 12.2571 45.2723 13.7143 47.8723 14.4L50.2723 15.0286C51.3295 15.2857 52.1295 15.8 52.1295 16.8857C52.1295 18.3429 50.758 18.8857 49.3009 18.8857C47.5295 18.8857 46.4437 18.0857 46.4723 16.6571H44.0152Z" fill="#343434"/>
<path d="M56.854 13.6857C56.854 18.1143 59.4826 21 63.4826 21C66.7112 21 69.3111 19.1429 69.9397 16.2857H67.4254C67.0254 17.7143 65.454 18.7143 63.5112 18.7143C61.1969 18.7143 59.6254 17.3143 59.454 14.6H69.9112V13.6286C69.9112 9.17143 67.4254 6.28571 63.454 6.28571C59.5397 6.28571 56.854 9.17143 56.854 13.6857ZM59.4826 12.8C59.5683 10.0286 61.1683 8.54286 63.3969 8.54286C65.5683 8.54286 67.1969 9.91429 67.254 12.8H59.4826Z" fill="#343434"/>
</svg>
